<svg width="31" height="31" viewBox="0 0 31 31" fill="none" xmlns="http://www.w3.org/2000/svg">
<mask id="mask0_8_20" style="mask-type:alpha" maskUnits="userSpaceOnUse" x="0" y="0" width="31" height="31">
<path d="M30.2048 15.5C30.2048 23.7888 23.5506 30.5 15.3524 30.5C7.15414 30.5 0.5 23.7888 0.5 15.5C0.5 7.21121 7.15414 0.5 15.3524 0.5C23.5506 0.5 30.2048 7.21121 30.2048 15.5Z" fill="#3674A1" stroke="black"/>
</mask>
<g mask="url(#mask0_8_20)">
<ellipse cx="15.3524" cy="15.5" rx="15.3524" ry="15.5" fill="#EAEBEF"/>
<path d="M18.9337 22.8765C17.7543 22.2347 18.0755 19.1349 18.0755 19.1349L16.3092 19.2486V19.1349L16.1201 19.1918L15.9309 19.1349V19.2486L14.1646 19.1349C14.1646 19.1349 14.4859 22.2347 13.3065 22.8765C12.1271 23.5184 5.15638 23.8386 5.90602 31.0002H26.3341C27.0852 23.8386 20.1145 23.517 18.9337 22.8765Z" fill="#874C48"/>
<path d="M13.9171 22.0766C15.3287 21.8673 16.739 21.651 18.1479 21.4278C17.949 20.359 18.077 19.1349 18.077 19.1349L16.3106 19.2486V19.1349L16.1215 19.1917L15.9323 19.1349V19.2486L14.166 19.1349C14.166 19.1349 14.3524 20.9357 13.9185 22.0766H13.9171Z" fill="#381F1C"/>
<path d="M20.4177 23.1715C19.7849 24.8184 18.0992 25.9968 16.1201 25.9968C14.141 25.9968 12.4553 24.8184 11.8225 23.1715C9.39278 23.8356 5.12024 25.2579 5.72245 31H26.5177C27.1199 25.2593 22.8474 23.8356 20.4177 23.1715Z" fill="#E0E0E0"/>
<path opacity="0.1" d="M24.8571 25.4215C22.2507 27.1031 19.1061 27.7616 16.1827 28.6904C13.4414 29.561 10.6668 30.3138 7.87402 31H26.5177C26.7987 28.3203 26.017 26.5819 24.8571 25.4215Z" fill="#352C38"/>
<path d="M20.8293 23.2883V31.0003H26.5177C27.0865 25.5702 23.298 24.0036 20.8293 23.2883Z" fill="#00518B"/>
<path d="M11.3719 23.2991C8.9032 24.02 5.15638 25.599 5.72243 31H11.3719V23.2991Z" fill="#00518B"/>
<path d="M11.44 23.2993V31.0002C11.44 31.0002 8.58885 26.155 8.72793 24.4915C8.86702 22.8279 11.1618 22.7295 11.44 23.2993Z" fill="#006CC4"/>
<path d="M20.6846 23.2993V31.0002C20.6846 31.0002 23.5358 26.155 23.3967 24.4915C23.2576 22.8279 20.9628 22.7295 20.6846 23.2993Z" fill="#006CC4"/>
<path d="M12.6653 14.5963C12.3176 13.5219 11.4943 13.77 11.4178 13.7964C11.3371 13.8061 10.4859 13.9322 10.6334 15.051C10.7808 16.178 11.4373 16.788 12.052 16.6092C12.6848 16.5093 13.0158 15.6776 12.6653 14.5963Z" fill="#381F1C"/>
<path d="M19.6054 14.5963C19.9531 13.5219 20.7765 13.77 20.853 13.7964C20.9336 13.8061 21.7848 13.9322 21.6374 15.051C21.49 16.178 20.8335 16.788 20.2188 16.6092C19.586 16.5093 19.2549 15.6776 19.6054 14.5963Z" fill="#381F1C"/>
<path d="M11.8225 12.9671C12.2536 8.25508 15.8475 8.51848 16.1854 8.55452C16.5248 8.51848 20.1186 8.25508 20.5484 12.9671C20.9823 17.7069 18.8641 20.8025 16.1854 20.6333C13.5068 20.8039 11.3886 17.7083 11.8225 12.9671Z" fill="#874C48"/>
<path d="M16.8057 13.52C17.0352 14.4031 17.1381 15.3042 17.1952 16.2108C16.8961 16.3938 16.5943 16.5699 16.2772 16.7223C16.3996 16.6073 16.5276 16.5005 16.6555 16.3938C16.7849 16.2884 16.9156 16.1859 17.0477 16.0847L17.0088 16.1706C16.8697 15.2931 16.7765 14.41 16.8071 13.5186L16.8057 13.52Z" fill="#381F1C"/>
<path d="M18.0185 17.5693C17.1632 18.3983 15.714 18.3526 14.6152 17.6137L18.0185 17.5693Z" fill="white"/>
<path d="M19.5748 13.1706C19.5748 13.1706 19.5373 13.1498 19.4719 13.1138C19.4399 13.0957 19.401 13.0749 19.3578 13.0514C19.3147 13.0292 19.266 13.0029 19.2118 12.9751C19.1562 12.9516 19.1019 12.9197 19.0393 12.8961C19.0087 12.8823 18.9781 12.8698 18.9476 12.8559C18.9156 12.8448 18.8836 12.8323 18.8502 12.8213C18.7862 12.7935 18.7167 12.7824 18.6499 12.7589C18.5804 12.7519 18.5136 12.7256 18.4441 12.7284L18.3412 12.7201C18.3078 12.7242 18.273 12.7256 18.2396 12.727C18.1715 12.7242 18.1075 12.7492 18.0421 12.7575C17.9768 12.7686 17.917 12.7991 17.8558 12.8157L17.8099 12.8296L17.7682 12.8504C17.7403 12.8642 17.7125 12.8767 17.6861 12.8892C17.6332 12.9155 17.5804 12.9335 17.5401 12.9613C17.4983 12.9876 17.4594 13.007 17.4274 13.025C17.362 13.0597 17.3203 13.0777 17.3203 13.0777C17.3203 13.0777 17.337 13.0389 17.3732 12.9724C17.3912 12.9391 17.4135 12.8989 17.4427 12.8545C17.4691 12.8074 17.5095 12.763 17.5567 12.7159C17.6054 12.6701 17.6485 12.6092 17.7167 12.5689C17.7835 12.5287 17.8488 12.4733 17.9309 12.4428C17.9712 12.4262 18.0143 12.4109 18.0574 12.397C18.1006 12.379 18.1451 12.3707 18.1923 12.3652C18.2382 12.3582 18.2855 12.3513 18.3342 12.3471C18.3815 12.3471 18.4288 12.3513 18.4775 12.3541C18.5734 12.3555 18.6624 12.3873 18.7528 12.4095C18.796 12.4248 18.8363 12.4428 18.878 12.4608C18.9197 12.4775 18.9587 12.4969 18.9934 12.5204C19.0296 12.5426 19.0658 12.5634 19.0991 12.5856C19.1311 12.6105 19.1617 12.6341 19.1909 12.6591C19.2521 12.7048 19.298 12.7603 19.3439 12.806C19.4302 12.9044 19.49 12.9945 19.5247 13.0625C19.5609 13.129 19.5748 13.1706 19.5748 13.1706Z" fill="#352C38"/>
<path d="M15.0992 13.1706C15.0992 13.1706 15.0617 13.1498 14.9963 13.1138C14.9643 13.0957 14.9254 13.0749 14.8823 13.0514C14.8391 13.0292 14.7905 13.0029 14.7362 12.9751C14.6806 12.9516 14.6263 12.9197 14.5638 12.8961C14.5332 12.8823 14.5026 12.8698 14.472 12.8559C14.44 12.8448 14.408 12.8323 14.3746 12.8213C14.3106 12.7935 14.2411 12.7824 14.1743 12.7589C14.1048 12.7519 14.038 12.7256 13.9685 12.7284L13.8656 12.7201C13.8322 12.7242 13.7974 12.7256 13.764 12.727C13.6959 12.7242 13.6319 12.7492 13.5666 12.7575C13.5012 12.7686 13.4414 12.7991 13.3802 12.8157L13.3343 12.8296L13.2926 12.8504C13.2647 12.8642 13.2369 12.8767 13.2105 12.8892C13.1577 12.9155 13.1048 12.9335 13.0645 12.9613C13.0227 12.9876 12.9838 13.007 12.9518 13.025C12.8865 13.0597 12.8447 13.0777 12.8447 13.0777C12.8447 13.0777 12.8614 13.0389 12.8976 12.9724C12.9157 12.9391 12.9379 12.8989 12.9671 12.8545C12.9935 12.8074 13.0339 12.763 13.0812 12.7159C13.1298 12.6701 13.173 12.6092 13.2411 12.5689C13.3079 12.5287 13.3732 12.4733 13.4553 12.4428C13.4956 12.4262 13.5387 12.4109 13.5819 12.397C13.625 12.379 13.6695 12.3707 13.7168 12.3652C13.7627 12.3582 13.8099 12.3513 13.8586 12.3471C13.9059 12.3471 13.9532 12.3513 14.0019 12.3541C14.0978 12.3555 14.1869 12.3873 14.2773 12.4095C14.3204 12.4248 14.3607 12.4428 14.4024 12.4608C14.4441 12.4775 14.4831 12.4969 14.5179 12.5204C14.554 12.5426 14.5902 12.5634 14.6236 12.5856C14.6556 12.6105 14.6861 12.6341 14.7154 12.6591C14.7766 12.7048 14.8224 12.7603 14.8683 12.806C14.9546 12.9044 15.0144 12.9945 15.0491 13.0625C15.0853 13.129 15.0992 13.1706 15.0992 13.1706Z" fill="#352C38"/>
<path d="M14.956 14.8786C14.956 14.8786 14.9462 14.8398 14.924 14.7761C14.9017 14.7123 14.8683 14.6222 14.8155 14.5237C14.7613 14.4253 14.6861 14.32 14.5818 14.2423C14.5304 14.2035 14.4706 14.1716 14.4066 14.1522C14.3746 14.1411 14.3426 14.1314 14.3079 14.1286C14.2731 14.1245 14.2397 14.1176 14.2035 14.1203C14.1702 14.1203 14.1284 14.1176 14.102 14.1217C14.0659 14.1286 14.02 14.13 13.9921 14.1411C13.9351 14.1591 13.8711 14.1813 13.8225 14.2215C13.771 14.2576 13.7307 14.3061 13.6945 14.3546C13.6625 14.4059 13.6347 14.4586 13.6138 14.5099C13.5735 14.6139 13.5526 14.7081 13.5415 14.7733C13.529 14.8398 13.5262 14.8786 13.5262 14.8786C13.5262 14.8786 13.5151 14.8412 13.5081 14.7719C13.5012 14.7026 13.497 14.6028 13.522 14.4822C13.5346 14.4225 13.554 14.3574 13.5874 14.2922C13.6222 14.2285 13.6653 14.1605 13.7307 14.1092C13.7919 14.0538 13.8684 14.0122 13.9574 13.9859C14.0019 13.9706 14.0353 13.9706 14.0742 13.9623C14.1243 13.954 14.1618 13.9581 14.2049 13.9554C14.2467 13.9526 14.2898 13.9623 14.3329 13.9692C14.376 13.9734 14.4163 13.9872 14.4567 14.0025C14.4984 14.0136 14.5359 14.0358 14.5707 14.0579C14.6083 14.0774 14.6389 14.1051 14.6709 14.1314C14.7932 14.2396 14.86 14.374 14.8989 14.4877C14.9379 14.6028 14.949 14.7026 14.9532 14.7719C14.9574 14.8412 14.9532 14.88 14.9532 14.88L14.956 14.8786Z" fill="#352C38"/>
<path d="M18.9796 14.8138C18.9796 14.8138 18.9698 14.775 18.9476 14.7112C18.9253 14.6474 18.8919 14.5573 18.8391 14.4589C18.7849 14.3604 18.7098 14.2551 18.6054 14.1775C18.554 14.1386 18.4942 14.1068 18.4302 14.0873C18.3982 14.0763 18.3662 14.0666 18.3315 14.0638C18.2967 14.0596 18.2633 14.0527 18.2271 14.0555C18.1938 14.0555 18.152 14.0527 18.1256 14.0568C18.0895 14.0638 18.0436 14.0652 18.0157 14.0763C17.9587 14.0943 17.8947 14.1165 17.8461 14.1567C17.7946 14.1927 17.7543 14.2412 17.7181 14.2897C17.6861 14.341 17.6583 14.3937 17.6374 14.445C17.5971 14.549 17.5763 14.6433 17.5651 14.7084C17.5526 14.775 17.5498 14.8138 17.5498 14.8138C17.5498 14.8138 17.5387 14.7763 17.5317 14.707C17.5248 14.6377 17.5206 14.5379 17.5457 14.4173C17.5582 14.3577 17.5776 14.2925 17.611 14.2274C17.6458 14.1636 17.6889 14.0957 17.7543 14.0444C17.8155 13.9889 17.892 13.9473 17.981 13.921C18.0255 13.9057 18.0589 13.9057 18.0978 13.8974C18.1479 13.8891 18.1854 13.8933 18.2285 13.8905C18.2703 13.8877 18.3134 13.8974 18.3565 13.9044C18.3996 13.9085 18.4399 13.9224 18.4803 13.9376C18.522 13.9487 18.5595 13.9709 18.5943 13.9931C18.6319 14.0125 18.6625 14.0402 18.6945 14.0666C18.8168 14.1747 18.8836 14.3092 18.9225 14.4228C18.9615 14.5379 18.9726 14.6377 18.9768 14.707C18.981 14.7763 18.9768 14.8152 18.9768 14.8152L18.9796 14.8138Z" fill="#352C38"/>
<path d="M20.7361 9.33477C20.4941 8.36852 19.9156 8.12454 19.6374 8.06215C19.4775 5.57236 12.8016 5.11627 12.7154 5.59177C12.6222 6.10054 15.0798 6.93232 15.0798 6.93232C15.0798 6.93232 10.6751 5.77753 10.9073 6.79369C11.0951 7.61992 12.8739 7.5312 13.536 7.46743C12.6069 7.58249 9.42892 8.09126 10.8614 9.51915C10.9783 9.6356 11.1062 9.73541 11.2397 9.82275C11.1062 11.5931 11.6333 15.7575 11.6333 15.7575H12.0047L11.8656 12.892C12.5847 12.7492 12.9129 11.051 13.0241 10.2955C14.2411 10.3121 15.4636 9.90038 15.9156 9.72987C15.643 9.85602 15.2133 10.1458 15.6834 10.5811C16.1632 11.0261 17.885 10.484 18.7501 10.1721C18.9086 10.8472 19.4204 12.7395 20.1812 12.892L20.0421 15.7575H20.4135C20.4135 15.7575 21.063 10.6282 20.7375 9.33477H20.7361Z" fill="#FFEEDE"/>
<path d="M20.7362 9.33487C20.4942 8.36862 19.9156 8.12463 19.6374 8.06225C19.6082 7.60754 19.3606 7.22076 18.9768 6.8936C18.7696 8.58211 17.529 10.0183 15.956 10.7129C16.6333 10.8764 18.0074 10.4411 18.7501 10.1736C18.9086 10.8487 19.4205 12.741 20.1812 12.8935L20.0421 15.759H20.4135C20.4135 15.759 21.063 10.6297 20.7375 9.33626L20.7362 9.33487Z" fill="#FFE0C5"/>
</g>
</svg>
