<svg width="11" height="9" viewBox="0 0 11 9" fill="none" xmlns="http://www.w3.org/2000/svg">
<path d="M3.15634 8.29828C2.77356 8.29828 2.43544 8.15803 2.14197 7.87752C1.84851 7.59702 1.68902 7.2558 1.6635 6.85389C1.34877 6.6613 1.10422 6.41638 0.929839 6.11913C0.755462 5.82188 0.668273 5.49741 0.668273 5.14573C0.668273 4.71032 0.797993 4.31887 1.05743 3.97138C1.31687 3.62389 1.65925 3.40409 2.08456 3.31198L1.05105 2.24439L0.808625 2.49559C0.732069 2.57932 0.640628 2.62119 0.5343 2.62119C0.427973 2.62119 0.336531 2.57932 0.259975 2.49559C0.18342 2.42023 0.145142 2.33231 0.145142 2.23183C0.145142 2.13135 0.18342 2.03924 0.259975 1.95551L1.29348 0.900475C1.37003 0.825115 1.46148 0.787436 1.5678 0.787436C1.67413 0.787436 1.76557 0.825115 1.84213 0.900475C1.91868 0.984208 1.95696 1.07631 1.95696 1.17679C1.95696 1.27727 1.91868 1.36519 1.84213 1.44055L1.5997 1.70431L2.51837 2.67143L3.01598 1.20191C3.10955 0.925595 3.2733 0.699516 3.50722 0.523677C3.74114 0.347838 4.0027 0.259918 4.29191 0.259918H7.25207C7.54128 0.259918 7.80498 0.347838 8.04315 0.523677C8.28132 0.699516 8.44294 0.925595 8.528 1.20191L9.16597 3.28686C9.65082 3.32873 10.0549 3.52341 10.3781 3.8709C10.7013 4.21839 10.863 4.64334 10.863 5.14573C10.863 5.49741 10.7758 5.82188 10.6014 6.11913C10.427 6.41638 10.1825 6.6613 9.86773 6.85389C9.84221 7.2558 9.68272 7.59702 9.38926 7.87752C9.09579 8.15803 8.75767 8.29828 8.37489 8.29828C8.01763 8.29828 7.70503 8.17687 7.43708 7.93404C7.16914 7.69122 7.00114 7.39396 6.93309 7.04228H4.59814C4.53009 7.39396 4.36209 7.69122 4.09415 7.93404C3.8262 8.17687 3.5136 8.29828 3.15634 8.29828ZM3.13082 3.26174H5.3637V1.01351H4.29191C4.16432 1.01351 4.05374 1.05329 3.96017 1.13283C3.8666 1.21238 3.79856 1.31077 3.75602 1.42799L3.13082 3.26174ZM6.12925 3.26174H8.36213L7.78796 1.42799C7.74543 1.31077 7.67738 1.21238 7.58381 1.13283C7.49025 1.05329 7.37967 1.01351 7.25207 1.01351H6.12925V3.26174ZM3.15634 7.54468C3.3775 7.54468 3.56038 7.47351 3.70499 7.33116C3.84959 7.18882 3.9219 7.00879 3.9219 6.79109C3.9219 6.57338 3.84959 6.39335 3.70499 6.25101C3.56038 6.10866 3.3775 6.03749 3.15634 6.03749C2.93518 6.03749 2.75229 6.10866 2.60769 6.25101C2.46308 6.39335 2.39078 6.57338 2.39078 6.79109C2.39078 7.00879 2.46308 7.18882 2.60769 7.33116C2.75229 7.47351 2.93518 7.54468 3.15634 7.54468ZM8.37489 7.54468C8.59605 7.54468 8.77894 7.47351 8.92354 7.33116C9.06815 7.18882 9.14045 7.00879 9.14045 6.79109C9.14045 6.57338 9.06815 6.39335 8.92354 6.25101C8.77894 6.10866 8.59605 6.03749 8.37489 6.03749C8.15373 6.03749 7.97085 6.10866 7.82624 6.25101C7.68164 6.39335 7.60933 6.57338 7.60933 6.79109C7.60933 7.00879 7.68164 7.18882 7.82624 7.33116C7.97085 7.47351 8.15373 7.54468 8.37489 7.54468Z" fill="#DCEBF1"/>
</svg>
