<svg width="9" height="11" viewBox="0 0 9 11" fill="none" xmlns="http://www.w3.org/2000/svg">
<path d="M1.17474 10.1914C0.97704 10.1914 0.808993 10.1198 0.670601 9.97652C0.532209 9.83325 0.463013 9.65927 0.463013 9.45459V3.19137C0.463013 2.74107 0.597451 2.35013 0.866326 2.01855C1.1352 1.68696 1.47525 1.48024 1.88647 1.39837V0.366776H3.07269V1.34924H5.44512V0.366776H6.63134V1.39837C7.04256 1.48024 7.38261 1.68696 7.65148 2.01855C7.92036 2.35013 8.0548 2.74107 8.0548 3.19137V9.45459C8.0548 9.65927 7.9856 9.83325 7.84721 9.97652C7.70882 10.1198 7.54077 10.1914 7.34307 10.1914H1.17474ZM5.91961 7.12123H6.63134V5.40191H1.88647V6.13876H5.91961V7.12123Z" fill="#F6EEDC"/>
</svg>
