<svg width="32" height="38" viewBox="0 0 32 38" fill="none" xmlns="http://www.w3.org/2000/svg">
<path d="M4.45 38C4.01667 38 3.63333 37.875 3.3 37.625C2.96667 37.375 2.8 37.05 2.8 36.65V32.45C1.83333 31.9167 1.125 31.15 0.675 30.15C0.225 29.15 0 28.0833 0 26.95V7.1C0 4.6446 1.275 2.84742 3.825 1.70845C6.375 0.569484 10.45 0 16.05 0C21.5833 0 25.625 0.566667 28.175 1.7C30.725 2.83333 32 4.63333 32 7.1V26.95C32 28.0833 31.775 29.15 31.325 30.15C30.875 31.15 30.1667 31.9167 29.2 32.45V36.65C29.2 37.05 29.0333 37.375 28.7 37.625C28.3667 37.875 27.9833 38 27.55 38H26.6C26.1183 38 25.7146 37.875 25.3888 37.625C25.0629 37.375 24.9 37.05 24.9 36.65V33.9H7.1V36.65C7.1 37.05 6.93708 37.375 6.61125 37.625C6.28542 37.875 5.88167 38 5.4 38H4.45ZM3 17.45H29V8.8H3V17.45ZM8.30295 28.4C9.06765 28.4 9.71667 28.1323 10.25 27.597C10.7833 27.0617 11.05 26.4117 11.05 25.647C11.05 24.8823 10.7824 24.2333 10.2471 23.7C9.71175 23.1667 9.06175 22.9 8.29705 22.9C7.53235 22.9 6.88333 23.1677 6.35 23.703C5.81667 24.2383 5.55 24.8883 5.55 25.653C5.55 26.4177 5.81765 27.0667 6.35295 27.6C6.88825 28.1333 7.53825 28.4 8.30295 28.4ZM23.703 28.4C24.4677 28.4 25.1167 28.1323 25.65 27.597C26.1833 27.0617 26.45 26.4117 26.45 25.647C26.45 24.8823 26.1824 24.2333 25.647 23.7C25.1117 23.1667 24.4618 22.9 23.6971 22.9C22.9324 22.9 22.2833 23.1677 21.75 23.703C21.2167 24.2383 20.95 24.8883 20.95 25.653C20.95 26.4177 21.2177 27.0667 21.753 27.6C22.2883 28.1333 22.9383 28.4 23.703 28.4Z" fill="#D5D5D5"/>
</svg>
