<svg width="40" height="40" viewBox="0 0 40 40" fill="none" xmlns="http://www.w3.org/2000/svg">
<path d="M11.3 17.85C11.8667 17.85 12.3417 17.6583 12.725 17.275C13.1083 16.8917 13.3 16.4167 13.3 15.85C13.3 15.2833 13.1083 14.8083 12.725 14.425C12.3417 14.0417 11.8667 13.85 11.3 13.85C10.7333 13.85 10.2583 14.0417 9.875 14.425C9.49167 14.8083 9.3 15.2833 9.3 15.85C9.3 16.4167 9.49167 16.8917 9.875 17.275C10.2583 17.6583 10.7333 17.85 11.3 17.85ZM20.15 17.85C20.7167 17.85 21.1917 17.6583 21.575 17.275C21.9583 16.8917 22.15 16.4167 22.15 15.85C22.15 15.2833 21.9583 14.8083 21.575 14.425C21.1917 14.0417 20.7167 13.85 20.15 13.85C19.5833 13.85 19.1083 14.0417 18.725 14.425C18.3417 14.8083 18.15 15.2833 18.15 15.85C18.15 16.4167 18.3417 16.8917 18.725 17.275C19.1083 17.6583 19.5833 17.85 20.15 17.85ZM28.65 17.85C29.2167 17.85 29.6917 17.6583 30.075 17.275C30.4583 16.8917 30.65 16.4167 30.65 15.85C30.65 15.2833 30.4583 14.8083 30.075 14.425C29.6917 14.0417 29.2167 13.85 28.65 13.85C28.0833 13.85 27.6083 14.0417 27.225 14.425C26.8417 14.8083 26.65 15.2833 26.65 15.85C26.65 16.4167 26.8417 16.8917 27.225 17.275C27.6083 17.6583 28.0833 17.85 28.65 17.85ZM0 40V3C0 2.23333 0.3 1.54167 0.9 0.925C1.5 0.308333 2.2 0 3 0H37C37.7667 0 38.4583 0.308333 39.075 0.925C39.6917 1.54167 40 2.23333 40 3V29C40 29.7667 39.6917 30.4583 39.075 31.075C38.4583 31.6917 37.7667 32 37 32H8L0 40Z" fill="#D5D5D5"/>
</svg>
