<svg width="38" height="46" viewBox="0 0 38 46" fill="none" xmlns="http://www.w3.org/2000/svg">
<path d="M19.0052 22.425C20.1135 22.425 21.0605 22.0304 21.8463 21.2411C22.6322 20.4519 23.0251 19.5032 23.0251 18.3949C23.0251 17.2866 22.6305 16.3396 21.8412 15.5538C21.052 14.7679 20.1033 14.375 18.995 14.375C17.8867 14.375 16.9397 14.7696 16.1538 15.5589C15.368 16.3481 14.9751 17.2968 14.9751 18.4051C14.9751 19.5134 15.3697 20.4604 16.159 21.2463C16.9482 22.0321 17.8969 22.425 19.0052 22.425ZM19.0001 46C12.8284 40.7483 8.21885 35.8704 5.17135 31.3663C2.12385 26.8621 0.600098 22.6933 0.600098 18.86C0.600098 13.11 2.44968 8.52917 6.14885 5.1175C9.84801 1.70583 14.1318 0 19.0001 0C23.8684 0 28.1522 1.70583 31.8513 5.1175C35.5505 8.52917 37.4001 13.11 37.4001 18.86C37.4001 22.6933 35.8763 26.8621 32.8288 31.3663C29.7813 35.8704 25.1718 40.7483 19.0001 46Z" fill="#FFA800"/>
</svg>
