<svg width="13" height="11" viewBox="0 0 13 11" fill="none" xmlns="http://www.w3.org/2000/svg">
<path d="M4.75362 10.1914C4.51544 10.1914 4.30704 10.1035 4.12841 9.92768C3.94978 9.75184 3.86046 9.5467 3.86046 9.31225V7.84692H5.70631V5.98596C5.3292 6.01526 4.95209 5.96398 4.57499 5.8321C4.19788 5.70022 3.86046 5.49263 3.56275 5.20933V4.35944H2.81845L0.868408 2.43987C1.22567 2.10773 1.6524 1.83664 2.14859 1.62661C2.64479 1.41658 3.15091 1.31157 3.66695 1.31157C3.96467 1.31157 4.30456 1.35797 4.68663 1.45077C5.0687 1.54358 5.40859 1.69255 5.70631 1.8977V0.813354H12.4794V8.65285C12.4794 9.08268 12.328 9.44657 12.0254 9.74452C11.7227 10.0425 11.353 10.1914 10.9164 10.1914H4.75362ZM6.59946 7.84692H10.2465V8.65285C10.2465 8.84823 10.3085 9.00697 10.4326 9.12908C10.5566 9.25119 10.7179 9.31225 10.9164 9.31225C11.1148 9.31225 11.2761 9.25119 11.4001 9.12908C11.5242 9.00697 11.5862 8.84823 11.5862 8.65285V1.69255H6.59946V2.52779L10.187 6.05922V6.68931H9.54686L7.67124 4.843L7.41818 5.13607C7.28917 5.2826 7.16016 5.39494 7.03115 5.47309C6.90214 5.55124 6.75824 5.62451 6.59946 5.69289V7.84692ZM3.22037 3.48025H4.4559V4.78439C4.6246 4.89185 4.79083 4.97244 4.95457 5.02617C5.11832 5.0799 5.28454 5.10676 5.45325 5.10676C5.70135 5.10676 5.95441 5.04082 6.21243 4.90894C6.47045 4.77706 6.659 4.64274 6.77809 4.50598L7.03115 4.21291L6.00403 3.20184C5.68646 2.88923 5.3292 2.64257 4.93225 2.46185C4.53529 2.28112 4.11352 2.19076 3.66695 2.19076C3.399 2.19076 3.15587 2.22251 2.93754 2.28601C2.71922 2.3495 2.49593 2.43498 2.26768 2.54244L3.22037 3.48025Z" fill="#F2E2E5"/>
</svg>
